TITLE ""
FILE "2Q_t_0401-0417.mp3" MP3
  TRACK 01 AUDIO
    TITLE "2Q_t_0401-0417_01"
    INDEX 01 00:00:00
  TRACK 02 AUDIO
    TITLE "2Q_t_0401-0417_02"
    INDEX 01 00:00:14
  TRACK 03 AUDIO
    TITLE "2Q_t_0401-0417_03"
    INDEX 01 00:01:49
  TRACK 04 AUDIO
    TITLE "2Q_t_0401-0417_04"
    INDEX 01 00:02:27
  TRACK 05 AUDIO
    TITLE "2Q_t_0401-0417_05"
    INDEX 01 00:03:36
  TRACK 06 AUDIO
    TITLE "2Q_t_0401-0417_06"
    INDEX 01 00:04:06
  TRACK 07 AUDIO
    TITLE "2Q_t_0401-0417_07"
    INDEX 01 00:05:21
  TRACK 08 AUDIO
    TITLE "2Q_t_0401-0417_08"
    INDEX 01 00:05:70
  TRACK 09 AUDIO
    TITLE "2Q_t_0401-0417_09"
    INDEX 01 00:07:28
  TRACK 10 AUDIO
    TITLE "2Q_t_0401-0417_10"
    INDEX 01 00:07:71
  TRACK 11 AUDIO
    TITLE "2Q_t_0401-0417_11"
    INDEX 01 00:08:73
  TRACK 12 AUDIO
    TITLE "2Q_t_0401-0417_12"
    INDEX 01 00:09:43
  TRACK 13 AUDIO
    TITLE "2Q_t_0401-0417_13"
    INDEX 01 00:12:27
  TRACK 14 AUDIO
    TITLE "2Q_t_0401-0417_14"
    INDEX 01 00:12:70
  TRACK 15 AUDIO
    TITLE "2Q_t_0401-0417_15"
    INDEX 01 00:14:14
  TRACK 16 AUDIO
    TITLE "2Q_t_0401-0417_16"
    INDEX 01 00:14:59
  TRACK 17 AUDIO
    TITLE "2Q_t_0401-0417_17"
    INDEX 01 00:16:35
  TRACK 18 AUDIO
    TITLE "2Q_t_0401-0417_18"
    INDEX 01 00:17:05
  TRACK 19 AUDIO
    TITLE "2Q_t_0401-0417_19"
    INDEX 01 00:18:14
  TRACK 20 AUDIO
    TITLE "2Q_t_0401-0417_20"
    INDEX 01 00:18:59
  TRACK 21 AUDIO
    TITLE "2Q_t_0401-0417_21"
    INDEX 01 00:20:27
  TRACK 22 AUDIO
    TITLE "2Q_t_0401-0417_22"
    INDEX 01 00:20:72
  TRACK 23 AUDIO
    TITLE "2Q_t_0401-0417_23"
    INDEX 01 00:22:06
  TRACK 24 AUDIO
    TITLE "2Q_t_0401-0417_24"
    INDEX 01 00:22:55
  TRACK 25 AUDIO
    TITLE "2Q_t_0401-0417_25"
    INDEX 01 00:23:56
  TRACK 26 AUDIO
    TITLE "2Q_t_0401-0417_26"
    INDEX 01 00:24:25
  TRACK 27 AUDIO
    TITLE "2Q_t_0401-0417_27"
    INDEX 01 00:25:55
  TRACK 28 AUDIO
    TITLE "2Q_t_0401-0417_28"
    INDEX 01 00:26:27
  TRACK 29 AUDIO
    TITLE "2Q_t_0401-0417_29"
    INDEX 01 00:28:56
  TRACK 30 AUDIO
    TITLE "2Q_t_0401-0417_30"
    INDEX 01 00:29:26
  TRACK 31 AUDIO
    TITLE "2Q_t_0401-0417_31"
    INDEX 01 00:30:39
  TRACK 32 AUDIO
    TITLE "2Q_t_0401-0417_32"
    INDEX 01 00:31:13
  TRACK 33 AUDIO
    TITLE "2Q_t_0401-0417_33"
    INDEX 01 00:33:69
  TRACK 34 AUDIO
    TITLE "2Q_t_0401-0417_34"
    INDEX 01 00:34:37
  TRACK 35 AUDIO
    TITLE "2Q_t_0401-0417_35"
    INDEX 01 00:35:64
  TRACK 36 AUDIO
    TITLE "2Q_t_0401-0417_36"
    INDEX 01 00:36:37
  TRACK 37 AUDIO
    TITLE "2Q_t_0401-0417_37"
    INDEX 01 00:38:72
  TRACK 38 AUDIO
    TITLE "2Q_t_0401-0417_38"
    INDEX 01 00:39:44
  TRACK 39 AUDIO
    TITLE "2Q_t_0401-0417_39"
    INDEX 01 00:40:53
  TRACK 40 AUDIO
    TITLE "2Q_t_0401-0417_40"
    INDEX 01 00:41:27
  TRACK 41 AUDIO
    TITLE "2Q_t_0401-0417_41"
    INDEX 01 00:42:69
  TRACK 42 AUDIO
    TITLE "2Q_t_0401-0417_42"
    INDEX 01 00:43:41
  TRACK 43 AUDIO
    TITLE "2Q_t_0401-0417_43"
    INDEX 01 00:44:62
  TRACK 44 AUDIO
    TITLE "2Q_t_0401-0417_44"
    INDEX 01 00:45:33
  TRACK 45 AUDIO
    TITLE "2Q_t_0401-0417_45"
    INDEX 01 00:48:56
  TRACK 46 AUDIO
    TITLE "2Q_t_0401-0417_46"
    INDEX 01 00:49:26
  TRACK 47 AUDIO
    TITLE "2Q_t_0401-0417_47"
    INDEX 01 00:50:28
  TRACK 48 AUDIO
    TITLE "2Q_t_0401-0417_48"
    INDEX 01 00:50:73
  TRACK 49 AUDIO
    TITLE "2Q_t_0401-0417_49"
    INDEX 01 00:54:06
  TRACK 50 AUDIO
    TITLE "2Q_t_0401-0417_50"
    INDEX 01 00:54:51
  TRACK 51 AUDIO
    TITLE "2Q_t_0401-0417_51"
    INDEX 01 00:56:01
  TRACK 52 AUDIO
    TITLE "2Q_t_0401-0417_52"
    INDEX 01 00:56:46
  TRACK 53 AUDIO
    TITLE "2Q_t_0401-0417_53"
    INDEX 01 01:00:73
  TRACK 54 AUDIO
    TITLE "2Q_t_0401-0417_54"
    INDEX 01 01:01:41
  TRACK 55 AUDIO
    TITLE "2Q_t_0401-0417_55"
    INDEX 01 01:02:51
  TRACK 56 AUDIO
    TITLE "2Q_t_0401-0417_56"
    INDEX 01 01:03:27
  TRACK 57 AUDIO
    TITLE "2Q_t_0401-0417_57"
    INDEX 01 01:04:65
  TRACK 58 AUDIO
    TITLE "2Q_t_0401-0417_58"
    INDEX 01 01:05:35
  TRACK 59 AUDIO
    TITLE "2Q_t_0401-0417_59"
    INDEX 01 01:06:37
  TRACK 60 AUDIO
    TITLE "2Q_t_0401-0417_60"
    INDEX 01 01:07:11
  TRACK 61 AUDIO
    TITLE "2Q_t_0401-0417_61"
    INDEX 01 01:08:51
  TRACK 62 AUDIO
    TITLE "2Q_t_0401-0417_62"
    INDEX 01 01:09:19
  TRACK 63 AUDIO
    TITLE "2Q_t_0401-0417_63"
    INDEX 01 01:10:40
  TRACK 64 AUDIO
    TITLE "2Q_t_0401-0417_64"
    INDEX 01 01:11:10
  TRACK 65 AUDIO
    TITLE "2Q_t_0401-0417_65"
    INDEX 01 01:14:44
  TRACK 66 AUDIO
    TITLE "2Q_t_0401-0417_66"
    INDEX 01 01:15:16
  TRACK 67 AUDIO
    TITLE "2Q_t_0401-0417_67"
    INDEX 01 01:16:21
  TRACK 68 AUDIO
    TITLE "2Q_t_0401-0417_68"
    INDEX 01 01:16:66
  TRACK 69 AUDIO
    TITLE "2Q_t_0401-0417_69"
    INDEX 01 01:21:32
  TRACK 70 AUDIO
    TITLE "2Q_t_0401-0417_70"
    INDEX 01 01:21:75
  TRACK 71 AUDIO
    TITLE "2Q_t_0401-0417_71"
    INDEX 01 01:23:02
  TRACK 72 AUDIO
    TITLE "2Q_t_0401-0417_72"
    INDEX 01 01:23:49
  TRACK 73 AUDIO
    TITLE "2Q_t_0401-0417_73"
    INDEX 01 01:27:39
